<svg xmlns="http://www.w3.org/2000/svg" xmlns:xlink="http://www.w3.org/1999/xlink" width="27" height="18" viewBox="0 0 27 18">
  <metadata><?xpacket begin="﻿" id="W5M0MpCehiHzreSzNTczkc9d"?>
<x:xmpmeta xmlns:x="adobe:ns:meta/" x:xmptk="Adobe XMP Core 5.6-c138 79.159824, 2016/09/14-01:09:01        ">
   <rdf:RDF xmlns:rdf="http://www.w3.org/1999/02/22-rdf-syntax-ns#">
      <rdf:Description rdf:about=""/>
   </rdf:RDF>
</x:xmpmeta>
                                                                                                    
                                                                                                    
                                                                                                    
                                                                                                    
                                                                                                    
                                                                                                    
                                                                                                    
                                                                                                    
                                                                                                    
                                                                                                    
                                                                                                    
                                                                                                    
                                                                                                    
                                                                                                    
                                                                                                    
                                                                                                    
                                                                                                    
                                                                                                    
                                                                                                    
                                                                                                    
                           
<?xpacket end="w"?></metadata>
<defs>
    <style>
      .cls-1 {
        fill: #f8f8f8;
        fill-rule: evenodd;
        filter: url(#filter);
      }
    </style>
    <filter id="filter" x="0" y="0" width="27" height="18" filterUnits="userSpaceOnUse">
      <feFlood result="flood"/>
      <feComposite result="composite" operator="in" in2="SourceGraphic"/>
      <feBlend result="blend" in2="SourceGraphic"/>
    </filter>
  </defs>
  <g id="Монтажна_область_1" data-name="Монтажна область 1">
    <path id="Shape_3_copy_3" data-name="Shape 3 copy 3" class="cls-1" d="M9.479,0.184A4.442,4.442,0,0,1,8.611.5a3.046,3.046,0,0,0-.98.662c-0.541.354-.214,0.64-0.609,0.971a1.779,1.779,0,0,0-.541.857A12.412,12.412,0,0,0,5.557,4.1,2.1,2.1,0,0,1,4.475,5.3a0.936,0.936,0,0,0-.552.548,10.652,10.652,0,0,1-.98.559c-0.282.217,0.191,0.675-.113,0.675S0,7.332,0,8.773s2.151,1.317,2.59,1.318,0.349,0.115.462,0.561a1.694,1.694,0,0,0,1.059.733A2.953,2.953,0,0,1,4.99,12.8c0.338,0.755.9,1.35,1.666,2.655S9.066,18.068,10.238,18s2.862-.912,3.088-2.1a13.973,13.973,0,0,0,6.6-.451c2.952-1.14,3.876-2.237,4.44-3.494a4.557,4.557,0,0,1,1.347-2.034C26.17,9.578,27,9.579,27,8.927s-0.828-.653-1.284-1a4.567,4.567,0,0,1-1.346-2.037c-0.563-1.258-1.486-2.357-4.437-3.5a14.6,14.6,0,0,0-6.771-.45h0a0.956,0.956,0,0,0-.135-0.461,5.874,5.874,0,0,0-1.171-1.2A4.787,4.787,0,0,0,10.335,0,1.792,1.792,0,0,0,9.479.184Z"/>
  </g>
</svg>
