<svg xmlns="http://www.w3.org/2000/svg" viewBox="0 0 363.32 359.06"><defs><style>.cls-1{fill:none;stroke:#fff;stroke-linecap:round;stroke-linejoin:round;stroke-width:4.25px;}</style></defs><title>Ресурс 1</title><g id="Слой_2" data-name="Слой 2"><g id="Layer_1" data-name="Layer 1"><line class="cls-1" x1="2.13" y1="308.88" x2="67.66" y2="308.88"/><line class="cls-1" x1="226.88" y1="308.88" x2="352.63" y2="308.88"/><path class="cls-1" d="M247.13,75.38v60.88c0,30-12,44.49-34.75,45.63-8.75.44-47,7.5-62.75-39.75"/><path class="cls-1" d="M156,135.54s-17,16-26-8.33,13.33-25.33,18-15.67"/><path class="cls-1" d="M138.64,105.86S129,85.54,136.29,58.54s43.33-47,63.67-45,43.33,5.33,53.67-3.67c0,0,7.5,10.08,0,15.25,0,0,23.92-5.42,27.83-23,0,0,21.5,26.75,0,56.08s-53,9.33-83.08,14-35.42,31-36.75,40.67"/><path class="cls-1" d="M193.38,110.25s8.5-11,16.38,0"/><path class="cls-1" d="M229.75,112.7s6.27-11,12.08,0"/><path class="cls-1" d="M151,146s3,16.25-1.37,32.75S139.79,197,139.79,197s-.5,20.17,25.17,24.33,37.33-5.83,37.33-19.17a49.27,49.27,0,0,1-3.92-19.78"/><path class="cls-1" d="M207.29,148s16.33,3.83,21.17,2.17C228.46,150.19,216.79,174.19,207.29,148Z"/><path class="cls-1" d="M98,253.54s17,40.67,27.33,58c0,0,32-5.33,78.67-24.33s39.33-30,38.17-42.67-3-18.42,5-18.33c8.17.09,10.5,27.92,10.5,27.92s7.21-4.51,14.67-8.92c25.08-14.83,30.63,31,22.65,36.33S263.46,294,242.13,300.63s-85.5,52.92-124.83,56.25c-11.79,1-23.33-11.33-37-27.33s-19.33-37-19.67-52S63.29,219.21,91,206.88,139.79,197,139.79,197"/><path class="cls-1" d="M202.29,202.21s30.21,9.88,38.89,28.4"/><path class="cls-1" d="M257.37,295.86a32.84,32.84,0,0,1,0,13"/><path class="cls-1" d="M17.25,308.88S-.5,293.38,4.88,274.13s22.75-19.5,26-16.25c0,0-13.5-18.88-3.62-34.5s22.63-8.12,22.63-8.12-27.63-46.62,13.88-57,29.88,41,29.88,41,11.67-5.14,15.27,1.24"/><path class="cls-1" d="M233.72,220.47S242.46,206.54,259,212s13.5,22.67,13.5,22.67,14.83-7.5,23,2.5,1.64,22.38,1.64,22.38,10.36-1.55,15.36,11.78-12.17,37.5-12.17,37.5"/><path class="cls-1" d="M293.36,235.13s-1.4-15.42,12.77-16.75c0,0-8.17-18.92,9.33-21.54s27.17,15.37,17.5,30.87c0,0,13.83-5.67,19.67,12.5s-9.17,23.17-9.17,23.17,12.17-3.33,17,11.17-15.67,34.33-15.67,34.33"/></g></g></svg>