<svg xmlns="http://www.w3.org/2000/svg" width="398" height="286" viewBox="0 0 398 286"><defs><style>.cls-1,.cls-2,.cls-3{fill:none;stroke:#fff}.cls-1,.cls-2{stroke-width:2px}.cls-2{fill-rule:evenodd}.cls-3{stroke-width:3px}</style></defs><g id="Монтажна_область_1" data-name="Монтажна область 1"><circle class="cls-1" cx="168" cy="27" r="4"/><circle id="Ellipse_1_copy" data-name="Ellipse 1 copy" class="cls-1" cx="211" cy="118" r="4"/><path class="cls-2" d="M186 242s1.578 13.133-12 26l10 1s11.25-14.644 10-26c0 0 10.866 4.358 19-9s14.738-26.083 32-41 29.262-21.419 25-38-13.2-5.5-18-8 3.021-13.02 12-26 10.924-23.093 3-37-12.518-2.859-15-1-10.348-8.717-18-36-42.406-34.434-44-9 2.421 41.88-9 38-22.262 17.188-18 33 9.585 30.714 2 25-15.5 14.6-3 25 7.4 16.418 3 15-4.192 16.386 7 25-3.668 31.709 14 43zM2 173h149" transform="translate(-2 -2)"/><path id="Shape_2_copy" data-name="Shape 2 copy" class="cls-2" d="M281 173h119" transform="translate(-2 -2)"/><path class="cls-3" d="M184 68h10v10h-10z"/><path class="cls-2" d="M194 79l17 38" transform="translate(-2 -2)"/><path id="Shape_6_copy" data-name="Shape 6 copy" class="cls-2" d="M172 32l17 38" transform="translate(-2 -2)"/><path class="cls-2" d="M192.453 75h-3.125L178 98.636l5.078 12.212V114h15.234v-3.545L203 99.03zm-1.172 0v20.485" transform="translate(-2 -2)"/><ellipse class="cls-1" cx="188.875" cy="96.25" rx="3.125" ry="3.156"/><path class="cls-2" d="M75 14s-5.28 157.523 92 220m38 19s86.364 36.271 122-28-17.132-124.131-63-97" transform="translate(-2 -2)"/><path class="cls-2" d="M264 184s15.09 6.139 24-6-6-21-6-21" transform="translate(-2 -2)"/><path id="Shape_2_copy_2" data-name="Shape 2 copy 2" class="cls-2" d="M281 157V2" transform="translate(-2 -2)"/><path id="Shape_2_copy_3" data-name="Shape 2 copy 3" class="cls-2" d="M281 287V173" transform="translate(-2 -2)"/></g></svg>