<svg xmlns="http://www.w3.org/2000/svg" width="379" height="220" viewBox="0 0 379 220"><defs><style>.cls-1,.cls-2,.cls-3{fill:none;stroke:#fff}.cls-1{stroke-width:3px}.cls-1,.cls-2{fill-rule:evenodd}.cls-2,.cls-3{stroke-width:2px}</style></defs><g id="Монтажна_область_1" data-name="Монтажна область 1"><path id="Shape_3_copy_2" data-name="Shape 3 copy 2" class="cls-1" d="M290.855 93.981a27.66 27.66 0 0 1-1.987-5.4c-.638-2.733-1.919-2.734-4.121-6.1s-3.982-1.331-6.047-3.781-2.987-2.174-5.333-3.366-3.34-4-6.9-5.751-5.333-2.666-7.463-6.732-1.777-1.683-3.412-3.437-2.13-4.346-3.48-6.1-4.2 1.19-4.2-.7-1.547-17.6-10.512-17.6-8.2 13.385-8.2 16.118-.7 2.168-3.478 2.868-3.277 4.345-4.56 6.587-4.13 3.363-8.828 5.464-8.4 5.6-16.518 10.368S179.578 91.412 180 98.7s5.673 17.806 13.071 19.211c0 0-4.292 22.708 2.8 41.077s13.92 24.119 21.743 27.626 10.524 5.541 12.656 8.382 2.126 7.992 6.181 7.994 4.061-5.151 6.2-7.989 4.843-4.87 12.673-8.371 14.667-9.248 21.8-27.609 2.8-42.128 2.8-42.128a5.937 5.937 0 0 0 2.869-.839c1.923-1.751 6.338-4.9 7.479-7.287s1.572-6.727 1.717-9.461a11.133 11.133 0 0 0-1.134-5.325z" transform="translate(-22 -33)"/><path id="Shape_1_copy_4" data-name="Shape 1 copy 4" class="cls-2" d="M300 91a40 40 0 1 1-40 40 40 40 0 0 1 40-40zm-1 40l-9-38 3-16h13l3 16zm.153-.36l21.13-32.84 13.606-8.937 9.017 9.364-9.444 13.259zm-.153-.624L337 121l16 3v13.023l-16 3.006zm.36.153l32.84 21.168 8.937 13.63-9.363 9.033-13.259-9.461zm-.376-.169L308 168l-3 16h-13.028l-3.006-16zm-.153.36l-21.168 32.84-13.63 8.937-9.033-9.363 9.461-13.259zm.169-.376L261 139l-16-3v-13.028l16-3.006zm-.36-.153l-32.84-21.168-8.937-13.63L266.226 86l13.259 9.461z" transform="translate(-22 -33)"/><circle class="cls-3" cx="277" cy="98" r="11"/><path id="Shape_1_copy_5" data-name="Shape 1 copy 5" class="cls-2" d="M353.852 171.907a34.019 34.019 0 1 1-34.074 34.018 34.046 34.046 0 0 1 34.074-34.018zM353 205.925l-7.667-32.318L347.889 160h11.074l2.555 13.607zm.13-.306l18-27.93 11.59-7.6 7.682 7.964-8.045 11.276zm-.13-.531l32.37-7.667 13.63 2.555v11.076l-13.63 2.556zm.307.131l27.975 18 7.614 11.592-7.977 7.682-11.295-8.046zm-.321-.144l7.681 32.318-2.56 13.607h-11.094l-2.56-13.607zm-.13.306l-18.032 27.93-11.611 7.6-7.7-7.964 8.06-11.276zm.144-.32l-32.37 7.668-13.63-2.556V199.1l13.63-2.556zm-.307-.13l-27.975-18-7.618-11.595 7.977-7.682 11.295 8.046z" transform="translate(-22 -33)"/><path class="cls-2" d="M51 97v139m-21-65v-70" transform="translate(-22 -33)"/><path id="Shape_2_copy" data-name="Shape 2 copy" class="cls-2" d="M36.264 118.768l-6.4-16.825" transform="translate(-22 -33)"/><path id="Shape_2_copy_2" data-name="Shape 2 copy 2" class="cls-2" d="M23.992 118.364l6.155-16.371" transform="translate(-22 -33)"/><path class="cls-3" d="M43 69h111v95H43z"/><path id="Rectangle_14_copy" data-name="Rectangle 14 copy" class="cls-3" d="M43 176h111v21H43z"/><path class="cls-2" d="M77 223s-4.585-1.9-1-6 12.795 2.325 14 6 14.608.457 20-3 13.07-7.811 17-3 17 5 17 5m11 0s6.992-.975 7-2m-90-34s5.093-15.27 16-26 26.908-3.083 36-9m10-8c6-9.94 10.532-2.146 14-13s10.48-16.122 19-17" transform="translate(-22 -33)"/><circle class="cls-3" cx="107" cy="114" r="6"/><circle class="cls-3" cx="143.5" cy="95.5" r="3.5"/><circle class="cls-3" cx="58.5" cy="116.5" r="4.5"/><circle class="cls-3" cx="76.5" cy="98.5" r="2.5"/><circle class="cls-3" cx="87" cy="147" r="10"/><circle id="Ellipse_1_copy" data-name="Ellipse 1 copy" class="cls-3" cx="331" cy="173" r="18"/></g></svg>