<svg xmlns="http://www.w3.org/2000/svg" width="27" height="18" viewBox="0 0 27 18"><defs><style>.cls-1{fill:#f8f8f8;fill-rule:evenodd;filter:url(#filter)}</style><filter id="filter" x="0" y="0" width="27" height="18" filterUnits="userSpaceOnUse"><feFlood result="flood"/><feComposite result="composite" operator="in" in2="SourceGraphic"/><feBlend result="blend" in2="SourceGraphic"/></filter></defs><g id="Монтажна_область_1" data-name="Монтажна область 1"><path id="Shape_3_copy_3" data-name="Shape 3 copy 3" class="cls-1" d="M9.479.184A4.442 4.442 0 0 1 8.611.5a3.046 3.046 0 0 0-.98.662c-.541.354-.214.64-.609.971a1.779 1.779 0 0 0-.541.857 12.412 12.412 0 0 0-.924 1.11 2.1 2.1 0 0 1-1.082 1.2.936.936 0 0 0-.552.548 10.652 10.652 0 0 1-.98.559c-.282.217.191.675-.113.675S0 7.332 0 8.773s2.151 1.317 2.59 1.318.349.115.462.561a1.694 1.694 0 0 0 1.059.733A2.953 2.953 0 0 1 4.99 12.8c.338.755.9 1.35 1.666 2.655s2.41 2.613 3.582 2.545 2.862-.912 3.088-2.1a13.973 13.973 0 0 0 6.6-.451c2.952-1.14 3.876-2.237 4.44-3.494a4.557 4.557 0 0 1 1.347-2.034C26.17 9.578 27 9.579 27 8.927s-.828-.653-1.284-1A4.567 4.567 0 0 1 24.37 5.89c-.563-1.258-1.486-2.357-4.437-3.5a14.6 14.6 0 0 0-6.771-.45.956.956 0 0 0-.135-.461 5.874 5.874 0 0 0-1.171-1.2A4.787 4.787 0 0 0 10.335 0a1.792 1.792 0 0 0-.856.184z"/></g></svg>